Coordinates
version=1
nRows=15
nColumns=34
inDegrees=no

Units are S.I. units (second, meters, Newtons, ...)
If the header above contains a line with 'inDegrees', this indicates whether rotational values are in degrees (yes) or radians (no).

endheader
time	pelvis_tilt	pelvis_list	pelvis_rotation	pelvis_tx	pelvis_ty	pelvis_tz	hip_flexion_r	hip_adduction_r	hip_rotation_r	knee_angle_r	ankle_angle_r	subtalar_angle_r	mtp_angle_r	hip_flexion_l	hip_adduction_l	hip_rotation_l	knee_angle_l	ankle_angle_l	subtalar_angle_l	mtp_angle_l	lumbar_extension	lumbar_bending	lumbar_rotation	arm_flex_r	arm_add_r	arm_rot_r	elbow_flex_r	pro_sup_r	arm_flex_l	arm_add_l	arm_rot_l	elbow_flex_l	pro_sup_l
0	-0.0527543	-0.0121986	-0.0297888	-0.166051	1.04229	-0.667956	0.139135	-0.171388	-0.291107	0.258571	0.234741	0.252512	-0.00817704	0.13587	-0.193909	-0.400038	0.284569	0.307764	0.471769	-0.00817225	-0.0985006	0.0339363	-0.0292734	0.00799874	-0.253458	0.246999	2.03086	1.75578	-0.00117768	-0.322197	0.352425	2.08407	1.70433
0.01	-0.0596329	-0.0121227	-0.0302356	-0.166583	1.04174	-0.668129	0.148695	-0.172231	-0.293665	0.260561	0.234312	0.255327	-0.00817703	0.145215	-0.194444	-0.40083	0.286485	0.306678	0.471083	-0.0081723	-0.0921532	0.0343972	-0.0280411	0.0119741	-0.254847	0.246724	2.03026	1.7596	0.00560288	-0.322497	0.35498	2.08028	1.70457
0.02	-0.0669276	-0.0119608	-0.0304651	-0.167282	1.04111	-0.668313	0.15944	-0.173315	-0.295846	0.263693	0.234107	0.257448	-0.00817701	0.155723	-0.195121	-0.401441	0.289337	0.305741	0.470422	-0.00817236	-0.0859746	0.0347044	-0.026976	0.0167695	-0.256131	0.246463	2.02981	1.763	0.0133028	-0.322927	0.357677	2.07682	1.70488
0.03	-0.0746356	-0.0117169	-0.0304808	-0.168147	1.04041	-0.668507	0.171369	-0.174632	-0.297642	0.267973	0.234129	0.258867	-0.008177	0.167391	-0.195948	-0.401876	0.293129	0.304962	0.469791	-0.00817242	-0.0799678	0.0348607	-0.0260774	0.0223858	-0.257309	0.24622	2.02953	1.76596	0.021916	-0.323485	0.360515	2.07371	1.70522
0.04	-0.0827439	-0.0114034	-0.0302938	-0.16918	1.03963	-0.668708	0.184475	-0.176164	-0.299024	0.273408	0.234373	0.259552	-0.00817699	0.180202	-0.196939	-0.402139	0.297868	0.304357	0.46919	-0.00817247	-0.0741469	0.0348769	-0.0253397	0.0288262	-0.258381	0.246009	2.02939	1.76839	0.0314278	-0.324166	0.363489	2.07095	1.70555
0.05	-0.0912288	-0.0110424	-0.0299241	-0.17038	1.03877	-0.66891	0.198738	-0.177876	-0.299944	0.280007	0.234828	0.259448	-0.00817698	0.194123	-0.198118	-0.402224	0.303561	0.303942	0.468605	-0.00817253	-0.068536	0.0347724	-0.0247509	0.0360945	-0.259349	0.245851	2.02939	1.77014	0.041815	-0.32496	0.366592	2.06857	1.70577
0.06	-0.10006	-0.0106621	-0.0293951	-0.171744	1.03781	-0.669111	0.214133	-0.179722	-0.300349	0.287776	0.235472	0.25848	-0.00817697	0.209111	-0.199513	-0.402108	0.310208	0.303732	0.467998	-0.00817259	-0.0631611	0.0345726	-0.0242947	0.0441884	-0.260215	0.245762	2.0295	1.77103	0.0530465	-0.325848	0.369812	2.06655	1.70579
0.07	-0.109211	-0.0102912	-0.0287216	-0.173272	1.03677	-0.669307	0.230628	-0.181657	-0.300214	0.296714	0.236278	0.256584	-0.00817696	0.225127	-0.201141	-0.401749	0.317811	0.30373	0.467309	-0.00817264	-0.0580382	0.0343041	-0.0239591	0.0530899	-0.260979	0.245738	2.02969	1.77094	0.0650846	-0.326807	0.373133	2.0649	1.70551
0.08	-0.118664	-0.00995264	-0.0278997	-0.174957	1.03563	-0.669496	0.248188	-0.183655	-0.299563	0.306804	0.237219	0.253744	-0.00817694	0.242151	-0.20301	-0.401083	0.326374	0.303929	0.466468	-0.0081727	-0.0531603	0.0339897	-0.0237452	0.0627573	-0.261635	0.24575	2.02993	1.76988	0.077886	-0.327807	0.37654	2.06355	1.70492
0.09	-0.128422	-0.00965872	-0.0269074	-0.176793	1.03438	-0.66968	0.266776	-0.185713	-0.298478	0.318006	0.238282	0.250012	-0.00817693	0.260189	-0.205106	-0.400041	0.335906	0.304311	0.465412	-0.00817276	-0.0484905	0.0336453	-0.0236661	0.0731218	-0.26217	0.245736	2.03017	1.76803	0.0914003	-0.32882	0.38002	2.06242	1.70404
0.1	-0.138504	-0.00941301	-0.0257156	-0.178771	1.03301	-0.669862	0.286355	-0.187848	-0.297084	0.330259	0.239471	0.24552	-0.00817692	0.279265	-0.207407	-0.398563	0.346418	0.30485	0.464089	-0.00817281	-0.0439586	0.0332815	-0.0237384	0.0840912	-0.262568	0.245621	2.03036	1.76562	0.105567	-0.329819	0.383568	2.06143	1.70294
0.11	-0.148929	-0.00922007	-0.0243005	-0.18088	1.03152	-0.670045	0.306867	-0.190087	-0.295524	0.34347	0.240813	0.240455	-0.00817691	0.299398	-0.20989	-0.396618	0.357922	0.305529	0.462487	-0.00817287	-0.0394897	0.0329133	-0.0239717	0.0955684	-0.262819	0.245329	2.03047	1.76293	0.120323	-0.330782	0.387189	2.06045	1.70166
0.12	-0.159677	-0.00909653	-0.0226467	-0.18311	1.0299	-0.67023	0.328192	-0.19244	-0.293957	0.357516	0.242352	0.23505	-0.0081769	0.320565	-0.212557	-0.394218	0.370431	0.306344	0.460637	-0.00817293	-0.0350536	0.0325688	-0.0243656	0.107478	-0.262934	0.244806	2.03049	1.76025	0.135612	-0.331696	0.390891	2.05938	1.70024
0.13	-0.170683	-0.00907518	-0.0207459	-0.185449	1.02813	-0.67042	0.35015	-0.194906	-0.292542	0.372251	0.244141	0.22955	-0.00817689	0.342687	-0.215428	-0.391399	0.383955	0.307307	0.458612	-0.00817298	-0.0306853	0.0322929	-0.0249119	0.119779	-0.26295	0.244032	2.03041	1.75788	0.151399	-0.332555	0.394689	2.05815	1.69875
0.14	-0.181855	-0.00919715	-0.0185956	-0.18789	1.02623	-0.670615	0.37254	-0.197475	-0.291427	0.38753	0.246241	0.224189	-0.00817687	0.365657	-0.21853	-0.38821	0.398492	0.308436	0.456499	-0.00817304	-0.0264655	0.0321405	-0.0256009	0.132469	-0.262928	0.24302	2.03024	1.75598	0.167665	-0.333354	0.398599	2.0567	1.69723
